<svg width="32" height="32" viewBox="0 0 32 32" fill="none" xmlns="http://www.w3.org/2000/svg">
<path d="M15.5702 4.05225C15.4614 4.08271 15.3048 4.14362 15.2222 4.18713C15.0613 4.2698 12.7429 6.54538 12.7429 6.6237C12.7429 6.64546 13.3562 7.28071 14.1043 8.02473L15.4614 9.3866L15.6354 9.33874C15.7311 9.31263 15.9747 9.29958 16.1791 9.30828C16.4836 9.32133 16.6054 9.35179 16.8446 9.46492C17.5884 9.813 18.0234 10.6571 17.8624 11.4403L17.8059 11.7318L19.1326 13.0589L20.4636 14.3859L20.7419 14.312C20.9768 14.2554 21.0682 14.251 21.3291 14.2945C22.273 14.4555 22.9211 15.1996 22.9211 16.122C22.9211 16.8442 22.521 17.4621 21.8555 17.7884C21.5684 17.9233 21.5249 17.932 21.0899 17.9364C20.6506 17.9364 20.6202 17.932 20.307 17.7754C19.6676 17.4577 19.2761 16.8791 19.237 16.2046C19.2239 15.9697 19.2413 15.7695 19.2804 15.6086C19.3196 15.478 19.3283 15.3605 19.3065 15.3475C19.2717 15.3257 18.728 14.7993 17.4797 13.5766C17.1795 13.2808 16.9186 13.0415 16.9055 13.0415C16.8881 13.0415 16.8751 14.4947 16.8751 16.2743V19.5027L17.1361 19.6942C17.6972 20.1032 17.9929 20.8254 17.8755 21.4824C17.6928 22.4962 16.762 23.1706 15.7833 23.0096C15.0352 22.8878 14.4566 22.3744 14.2653 21.6565C14.1478 21.2214 14.2261 20.6514 14.4523 20.2641C14.5871 20.0292 14.9177 19.7072 15.1482 19.581L15.3527 19.4679V16.1524V12.837L15.1439 12.7238C14.8568 12.5672 14.5001 12.18 14.3653 11.8797C14.2174 11.5491 14.1783 10.9878 14.2827 10.644L14.3479 10.4091L13.0125 9.06898C12.2775 8.33365 11.6598 7.73321 11.6337 7.73321C11.5554 7.73321 4.27403 15.0603 4.19139 15.217C4.08699 15.4258 4 15.7695 4 15.9784C4 16.2133 4.10004 16.5701 4.21748 16.7703C4.35232 16.9965 14.9308 27.5869 15.1874 27.7523C15.6615 28.0568 16.2574 28.0829 16.7881 27.8175C16.9534 27.7348 27.5492 17.1706 27.7319 16.9052C28.0842 16.4004 28.0886 15.6999 27.7493 15.1822C27.5536 14.8863 17.023 4.35682 16.775 4.20889C16.4314 4.00874 15.9616 3.94348 15.5702 4.05225Z" fill="#757F99"/>
</svg>
